<svg width="154" height="28" viewBox="0 0 154 28" fill="none" xmlns="http://www.w3.org/2000/svg">
<path d="M33.6699 22.1904V4.43311H40.5263C44.3214 4.43311 46.6996 7.04597 46.6996 10.0393C46.6996 13.5908 44.372 16.0768 40.5263 16.0768H36.9337V22.1904H33.6699ZM36.9337 13.1088H40.4251C42.2467 13.1088 43.4106 11.8912 43.4106 10.2423C43.4106 8.64412 42.2214 7.40111 40.4251 7.40111H36.9337V13.1088Z" fill="white"/>
<path d="M47.8045 22.1904V8.99926H50.9923V11.257L55.6729 8.69485V12.0687L50.9923 14.4786V22.1904H47.8045Z" fill="white"/>
<path d="M62.1579 22.444C58.1604 22.444 55.0991 19.6536 55.0991 15.5948C55.0991 11.536 58.1857 8.77095 62.1579 8.77095C66.1301 8.77095 69.2167 11.536 69.2167 15.5948C69.2167 19.6536 66.1554 22.444 62.1579 22.444ZM58.3123 15.5948C58.3123 17.8272 59.9568 19.4507 62.1579 19.4507C64.359 19.4507 66.0036 17.8272 66.0036 15.5948C66.0036 13.3878 64.359 11.739 62.1579 11.739C59.9568 11.739 58.3123 13.3878 58.3123 15.5948Z" fill="white"/>
<path d="M70.2052 27.9995V8.99926H73.3677V10.5467C74.152 9.50661 75.7713 8.77095 77.5676 8.77095C81.0843 8.77095 84.0698 11.3077 84.0698 15.5948C84.0698 19.6536 81.1096 22.4187 77.5676 22.4187C75.7713 22.4187 74.1267 21.6576 73.3677 20.6176V27.9995H70.2052ZM73.3171 15.5948C73.3171 17.7257 74.8351 19.4507 77.0869 19.4507C79.3639 19.4507 80.8566 17.7257 80.8566 15.5948C80.8566 13.4386 79.3639 11.7136 77.0869 11.7136C74.8351 11.7136 73.3171 13.4386 73.3171 15.5948Z" fill="white"/>
<path d="M92.3999 22.4187C90.6795 22.4187 88.9844 21.683 88.2 20.6429V22.1904H85.0375V3.41841H88.2V10.572C88.9591 9.53198 90.6542 8.77095 92.3999 8.77095C95.9419 8.77095 98.9021 11.536 98.9021 15.5948C98.9021 19.8819 95.9166 22.4187 92.3999 22.4187ZM88.1494 15.5948C88.1494 17.7257 89.6675 19.4507 91.9192 19.4507C94.1962 19.4507 95.689 17.751 95.689 15.5948C95.689 13.4386 94.1962 11.739 91.9192 11.739C89.6675 11.739 88.1494 13.4639 88.1494 15.5948Z" fill="white"/>
<path d="M99.7686 22.1904V8.99926H102.931V22.1904H99.7686ZM99.2373 4.91509C99.2373 3.69746 100.123 2.83496 101.337 2.83496C102.526 2.83496 103.437 3.69746 103.437 4.91509C103.437 6.10737 102.526 6.96986 101.337 6.96986C100.123 6.96986 99.2373 6.10737 99.2373 4.91509Z" fill="white"/>
<path d="M104.893 22.1904V8.99926H108.056V10.6228C108.688 9.55735 109.979 8.77095 111.674 8.77095C114.583 8.77095 116.506 10.9272 116.506 13.5147V22.1904H113.344V14.5294C113.344 12.8298 112.18 11.7897 110.712 11.7897C109.118 11.7897 108.056 12.9312 108.056 14.5294V22.1904H104.893Z" fill="white"/>
<path d="M123.68 22.4187C120.164 22.4187 117.204 19.8819 117.204 15.5948C117.204 11.536 120.164 8.77095 123.68 8.77095C125.451 8.77095 127.147 9.53198 127.906 10.572V3.41841H131.068V22.1904H127.906V20.6429C127.121 21.683 125.401 22.4187 123.68 22.4187ZM120.417 15.5948C120.417 17.751 121.909 19.4507 124.161 19.4507C126.413 19.4507 127.931 17.7257 127.931 15.5948C127.931 13.4639 126.413 11.739 124.161 11.739C121.909 11.739 120.417 13.4386 120.417 15.5948Z" fill="white"/>
<path d="M138.645 22.4187C134.369 22.4187 131.789 19.3999 131.789 15.5948C131.789 11.739 134.547 8.77095 138.62 8.77095C142.794 8.77095 145.173 11.9926 145.173 15.468V16.7363H134.977C135.381 18.715 136.849 19.6029 138.645 19.6029C140.669 19.6029 141.884 18.436 142.238 17.5481L144.641 18.9433C144.135 20.2117 142.263 22.4187 138.645 22.4187ZM135.053 14.1996H141.884C141.808 13.0327 140.72 11.5106 138.595 11.5106C137.001 11.5106 135.533 12.4239 135.053 14.1996Z" fill="white"/>
<path d="M146.129 22.1904V8.99926H149.317V11.257L153.997 8.69485V12.0687L149.317 14.4786V22.1904H146.129Z" fill="white"/>
<path d="M27.2911 4.43018H18.6076V7.08838H20.9114C21.1063 7.08838 21.2658 7.24788 21.2658 7.44281V10.2782C21.2658 10.4732 21.1063 10.6327 20.9114 10.6327H18.6076V11.5187H20.9114C21.1063 11.5187 21.2658 11.6782 21.2658 11.8732V14.7086C21.2658 14.9035 21.1063 15.063 20.9114 15.063H18.6076V15.9491H20.9114C21.1063 15.9491 21.2658 16.1086 21.2658 16.3035V19.1389C21.2658 19.3339 21.1063 19.4934 20.9114 19.4934H18.6076V21.0883C18.6076 21.4799 18.4907 21.845 18.2904 22.1516H22.1519L25.6962 25.6958V22.1516H27.2911C27.8777 22.1516 28.3544 21.6749 28.3544 21.0883V5.49346C28.3544 4.90688 27.8777 4.43018 27.2911 4.43018ZM25.6962 19.1389C25.6962 19.3339 25.5367 19.4934 25.3417 19.4934H22.5063C22.3114 19.4934 22.1519 19.3339 22.1519 19.1389V16.3035C22.1519 16.1086 22.3114 15.9491 22.5063 15.9491H25.3417C25.5367 15.9491 25.6962 16.1086 25.6962 16.3035V19.1389ZM25.6962 14.7086C25.6962 14.9035 25.5367 15.063 25.3417 15.063H22.5063C22.3114 15.063 22.1519 14.9035 22.1519 14.7086V11.8732C22.1519 11.6782 22.3114 11.5187 22.5063 11.5187H25.3417C25.5367 11.5187 25.6962 11.6782 25.6962 11.8732V14.7086ZM25.6962 10.2782C25.6962 10.4732 25.5367 10.6327 25.3417 10.6327H22.5063C22.3114 10.6327 22.1519 10.4732 22.1519 10.2782V7.44281C22.1519 7.24788 22.3114 7.08838 22.5063 7.08838H25.3417C25.5367 7.08838 25.6962 7.24788 25.6962 7.44281V10.2782Z" fill="white"/>
<path d="M16.6581 0H1.06328C0.476706 0 0 0.476705 0 1.06328V21.0885C0 21.675 0.476706 22.1517 1.06328 22.1517H2.65821V25.696L6.20249 22.1517H16.6581C17.2447 22.1517 17.7214 21.675 17.7214 21.0885V1.06328C17.7214 0.476705 17.2447 0 16.6581 0ZM6.20249 19.1391C6.20249 19.334 6.043 19.4935 5.84806 19.4935H3.01264C2.8177 19.4935 2.65821 19.334 2.65821 19.1391V16.3037C2.65821 16.1087 2.8177 15.9493 3.01264 15.9493H5.84806C6.043 15.9493 6.20249 16.1087 6.20249 16.3037V19.1391ZM6.20249 14.7088C6.20249 14.9037 6.043 15.0632 5.84806 15.0632H3.01264C2.8177 15.0632 2.65821 14.9037 2.65821 14.7088V11.8733C2.65821 11.6784 2.8177 11.5189 3.01264 11.5189H5.84806C6.043 11.5189 6.20249 11.6784 6.20249 11.8733V14.7088ZM6.20249 10.2784C6.20249 10.4733 6.043 10.6328 5.84806 10.6328H3.01264C2.8177 10.6328 2.65821 10.4733 2.65821 10.2784V7.44298C2.65821 7.24805 2.8177 7.08856 3.01264 7.08856H5.84806C6.043 7.08856 6.20249 7.24805 6.20249 7.44298V10.2784ZM6.20249 5.84806C6.20249 6.04299 6.043 6.20249 5.84806 6.20249H3.01264C2.8177 6.20249 2.65821 6.04299 2.65821 5.84806V3.01264C2.65821 2.8177 2.8177 2.65821 3.01264 2.65821H5.84806C6.043 2.65821 6.20249 2.8177 6.20249 3.01264V5.84806ZM10.6328 19.1391C10.6328 19.334 10.4733 19.4935 10.2784 19.4935H7.44299C7.24805 19.4935 7.08856 19.334 7.08856 19.1391V16.3037C7.08856 16.1087 7.24805 15.9493 7.44299 15.9493H10.2784C10.4733 15.9493 10.6328 16.1087 10.6328 16.3037V19.1391ZM10.6328 14.7088C10.6328 14.9037 10.4733 15.0632 10.2784 15.0632H7.44299C7.24805 15.0632 7.08856 14.9037 7.08856 14.7088V11.8733C7.08856 11.6784 7.24805 11.5189 7.44299 11.5189H10.2784C10.4733 11.5189 10.6328 11.6784 10.6328 11.8733V14.7088ZM10.6328 10.2784C10.6328 10.4733 10.4733 10.6328 10.2784 10.6328H7.44299C7.24805 10.6328 7.08856 10.4733 7.08856 10.2784V7.44298C7.08856 7.24805 7.24805 7.08856 7.44299 7.08856H10.2784C10.4733 7.08856 10.6328 7.24805 10.6328 7.44298V10.2784ZM10.6328 5.49363V5.84806C10.6328 6.04299 10.4733 6.20249 10.2784 6.20249H7.44299C7.24805 6.20249 7.08856 6.04299 7.08856 5.84806V3.01264C7.08856 2.8177 7.24805 2.65821 7.44299 2.65821H10.2784C10.4733 2.65821 10.6328 2.8177 10.6328 3.01264V5.49363ZM15.0632 19.1391C15.0632 19.334 14.9037 19.4935 14.7088 19.4935H11.8733C11.6784 19.4935 11.5189 19.334 11.5189 19.1391V16.3037C11.5189 16.1087 11.6784 15.9493 11.8733 15.9493H14.7088C14.9037 15.9493 15.0632 16.1087 15.0632 16.3037V19.1391ZM15.0632 14.7088C15.0632 14.9037 14.9037 15.0632 14.7088 15.0632H11.8733C11.6784 15.0632 11.5189 14.9037 11.5189 14.7088V11.8733C11.5189 11.6784 11.6784 11.5189 11.8733 11.5189H14.7088C14.9037 11.5189 15.0632 11.6784 15.0632 11.8733V14.7088ZM15.0632 10.2784C15.0632 10.4733 14.9037 10.6328 14.7088 10.6328H11.8733C11.6784 10.6328 11.5189 10.4733 11.5189 10.2784V7.44298C11.5189 7.24805 11.6784 7.08856 11.8733 7.08856H14.7088C14.9037 7.08856 15.0632 7.24805 15.0632 7.44298V10.2784ZM15.0632 4.43035V5.84806C15.0632 6.04299 14.9037 6.20249 14.7088 6.20249H11.8733C11.6784 6.20249 11.5189 6.04299 11.5189 5.84806V3.01264C11.5189 2.8177 11.6784 2.65821 11.8733 2.65821H14.7088C14.9037 2.65821 15.0632 2.8177 15.0632 3.01264V4.43035Z" fill="white"/>
</svg>
